  0
SECTION
  2
HEADER
  9
$ACADVER
  1
AC1014
  9
$HANDSEED
  5
FFFF
  9
$MEASUREMENT
 70
     1
  0
ENDSEC
  0
SECTION
  2
TABLES
  0
TABLE
  2
VPORT
  5
8
330
0
100
AcDbSymbolTable
 70
     4
  0
VPORT
  5
2E
330
8
100
AcDbSymbolTableRecord
100
AcDbViewportTableRecord
  2
*ACTIVE
 70
     0
 10
0.0
 20
0.0
 11
1.0
 21
1.0
 12
210.0
 22
148.5
 13
0.0
 23
0.0
 14
10.0
 24
10.0
 15
10.0
 25
10.0
 16
0.0
 26
0.0
 36
1.0
 17
0.0
 27
0.0
 37
0.0
 40
341.0
 41
1.24
 42
50.0
 43
0.0
 44
0.0
 50
0.0
 51
0.0
 71
     0
 72
   100
 73
     1
 74
     3
 75
     0
 76
     0
 77
     0
 78
     0
  0
ENDTAB
  0
TABLE
  2
LTYPE
  5
5
330
0
100
AcDbSymbolTable
 70
     1
  0
LTYPE
  5
14
330
5
100
AcDbSymbolTableRecord
100
AcDbLinetypeTableRecord
  2
BYBLOCK
 70
     0
  3

 72
    65
 73
     0
 40
0.0
  0
LTYPE
  5
15
330
5
100
AcDbSymbolTableRecord
100
AcDbLinetypeTableRecord
  2
BYLAYER
 70
     0
  3

 72
    65
 73
     0
 40
0.0
  0
LTYPE
  5
16
330
5
100
AcDbSymbolTableRecord
100
AcDbLinetypeTableRecord
  2
CONTINUOUS
 70
     0
  3
Solid line
 72
    65
 73
     0
 40
0.0
  0
ENDTAB
  0
TABLE
  2
LAYER
  5
2
100
AcDbSymbolTable
 70
2
  0
LAYER
  5
50
100
AcDbSymbolTableRecord
100
AcDbLayerTableRecord
  2
0
 70
0
  6
CONTINUOUS
  0
LAYER
  5
51
100
AcDbSymbolTableRecord
100
AcDbLayerTableRecord
  2
Layer_1
 70
0
  6
CONTINUOUS
  0
ENDTAB
  0
TABLE
  2
STYLE
  5
3
330
0
100
AcDbSymbolTable
 70
     1
  0
STYLE
  5
11
330
3
100
AcDbSymbolTableRecord
100
AcDbTextStyleTableRecord
  2
STANDARD
 70
     0
 40
0.0
 41
1.0
 50
0.0
 71
     0
 42
2.5
  3
txt
  4

  0
ENDTAB
  0
TABLE
  2
VIEW
  5
6
330
0
100
AcDbSymbolTable
 70
     0
  0
ENDTAB
  0
TABLE
  2
UCS
  5
7
330
0
100
AcDbSymbolTable
 70
     0
  0
ENDTAB
  0
TABLE
  2
APPID
  5
9
330
0
100
AcDbSymbolTable
 70
     2
  0
APPID
  5
12
330
9
100
AcDbSymbolTableRecord
100
AcDbRegAppTableRecord
  2
ACAD
 70
     0
  0
ENDTAB
  0
TABLE
  2
DIMSTYLE
  5
A
330
0
100
AcDbSymbolTable
 70
     1
  0
DIMSTYLE
105
27
330
A
100
AcDbSymbolTableRecord
100
AcDbDimStyleTableRecord
  2
ISO-25
 70
     0
  3

  4

  5

  6

  7

 40
1.0
 41
2.5
 42
0.625
 43
3.75
 44
1.25
 45
0.0
 46
0.0
 47
0.0
 48
0.0
140
2.5
141
2.5
142
0.0
143
0.03937007874016
144
1.0
145
0.0
146
1.0
147
0.625
 71
     0
 72
     0
 73
     0
 74
     0
 75
     0
 76
     0
 77
     1
 78
     8
170
     0
171
     3
172
     1
173
     0
174
     0
175
     0
176
     0
177
     0
178
     0
270
     2
271
     2
272
     2
273
     2
274
     3
340
11
275
     0
280
     0
281
     0
282
     0
283
     0
284
     8
285
     0
286
     0
287
     3
288
     0
  0
ENDTAB
  0
TABLE
  2
BLOCK_RECORD
  5
1
330
0
100
AcDbSymbolTable
 70
     1
  0
BLOCK_RECORD
  5
1F
330
1
100
AcDbSymbolTableRecord
100
AcDbBlockTableRecord
  2
*MODEL_SPACE
  0
BLOCK_RECORD
  5
1B
330
1
100
AcDbSymbolTableRecord
100
AcDbBlockTableRecord
  2
*PAPER_SPACE
  0
ENDTAB
  0
ENDSEC
  0
SECTION
  2
BLOCKS
  0
BLOCK
  5
20
330
1F
100
AcDbEntity
  8
0
100
AcDbBlockBegin
  2
*MODEL_SPACE
 70
     0
 10
0.0
 20
0.0
 30
0.0
  3
*MODEL_SPACE
  1

  0
ENDBLK
  5
21
330
1F
100
AcDbEntity
  8
0
100
AcDbBlockEnd
  0
BLOCK
  5
1C
330
1B
100
AcDbEntity
 67
     1
  8
0
100
AcDbBlockBegin
  2
*PAPER_SPACE
  1

  0
ENDBLK
  5
1D
330
1B
100
AcDbEntity
 67
     1
  8
0
100
AcDbBlockEnd
  0
ENDSEC
  0
SECTION
  2
ENTITIES
  0
LWPOLYLINE
  5
100
100
AcDbEntity
  8
Layer_1
 62
7
100
AcDbPolyline
 90
3
 70
0
 10
32.136067
 20
232.671566
 30
0.0
 10
37.135164
 20
211.825289
 30
0.0
 10
42.136631
 20
232.573250
 30
0.0
  0
LWPOLYLINE
  5
101
100
AcDbEntity
  8
Layer_1
 62
7
100
AcDbPolyline
 90
8
 70
0
 10
44.817501
 20
232.671566
 30
0.0
 10
48.323268
 20
211.825289
 30
0.0
 10
48.631416
 20
211.930160
 30
0.0
 10
52.518812
 20
232.573250
 30
0.0
 10
52.803255
 20
232.573250
 30
0.0
 10
56.761762
 20
211.825289
 30
0.0
 10
57.069909
 20
211.825289
 30
0.0
 10
60.412122
 20
232.671566
 30
0.0
  0
LWPOLYLINE
  5
102
100
AcDbEntity
  8
Layer_1
 62
7
100
AcDbPolyline
 90
3
 70
0
 10
63.045579
 20
232.671566
 30
0.0
 10
68.044675
 20
211.825289
 30
0.0
 10
73.046142
 20
232.573250
 30
0.0
  0
LWPOLYLINE
  5
103
100
AcDbEntity
  8
Layer_1
 62
7
100
AcDbPolyline
 90
4
 70
0
 10
76.554341
 20
232.474934
 30
0.0
 10
85.514315
 20
232.474934
 30
0.0
 10
76.028121
 20
212.136624
 30
0.0
 10
85.798759
 20
212.136624
 30
0.0
  0
LWPOLYLINE
  5
104
100
AcDbEntity
  8
Layer_1
 62
7
100
AcDbPolyline
 90
4
 70
0
 10
89.852069
 20
232.474934
 30
0.0
 10
98.812042
 20
232.474934
 30
0.0
 10
89.325848
 20
212.136624
 30
0.0
 10
99.096486
 20
212.136624
 30
0.0
  0
LWPOLYLINE
  5
105
100
AcDbEntity
  8
Layer_1
 62
7
100
AcDbPolyline
 90
4
 70
0
 10
103.149796
 20
232.474934
 30
0.0
 10
112.109770
 20
232.474934
 30
0.0
 10
102.623575
 20
212.136624
 30
0.0
 10
112.394213
 20
212.136624
 30
0.0
  0
LWPOLYLINE
  5
106
100
AcDbEntity
  8
Layer_1
 62
7
100
AcDbPolyline
 90
2
 70
0
 10
117.182626
 20
211.825289
 30
0.0
 10
117.182626
 20
232.671566
 30
0.0
  0
LWPOLYLINE
  5
107
100
AcDbEntity
  8
Layer_1
 62
7
100
AcDbPolyline
 90
2
 70
0
 10
125.692230
 20
232.474934
 30
0.0
 10
117.419662
 20
219.562762
 30
0.0
  0
LWPOLYLINE
  5
108
100
AcDbEntity
  8
Layer_1
 62
7
100
AcDbPolyline
 90
2
 70
0
 10
120.998911
 20
225.134004
 30
0.0
 10
126.592969
 20
211.825289
 30
0.0
  0
LWPOLYLINE
  5
109
100
AcDbEntity
  8
Layer_1
 62
7
100
AcDbPolyline
 90
2
 70
0
 10
131.001709
 20
211.825289
 30
0.0
 10
131.001709
 20
232.671566
 30
0.0
  0
LWPOLYLINE
  5
10a
100
AcDbEntity
  8
Layer_1
 62
7
100
AcDbPolyline
 90
2
 70
0
 10
139.511314
 20
232.474934
 30
0.0
 10
131.238746
 20
219.562762
 30
0.0
  0
LWPOLYLINE
  5
10b
100
AcDbEntity
  8
Layer_1
 62
7
100
AcDbPolyline
 90
2
 70
0
 10
134.817994
 20
225.134004
 30
0.0
 10
140.412052
 20
211.825289
 30
0.0
  0
LWPOLYLINE
  5
10c
100
AcDbEntity
  8
Layer_1
 62
7
100
AcDbPolyline
 90
2
 70
0
 10
144.820793
 20
211.825289
 30
0.0
 10
144.820793
 20
232.671566
 30
0.0
  0
LWPOLYLINE
  5
10d
100
AcDbEntity
  8
Layer_1
 62
7
100
AcDbPolyline
 90
2
 70
0
 10
153.330397
 20
232.474934
 30
0.0
 10
145.057829
 20
219.562762
 30
0.0
  0
LWPOLYLINE
  5
10e
100
AcDbEntity
  8
Layer_1
 62
7
100
AcDbPolyline
 90
2
 70
0
 10
148.637078
 20
225.134004
 30
0.0
 10
154.231135
 20
211.825289
 30
0.0
  0
LWPOLYLINE
  5
10f
100
AcDbEntity
  8
Layer_1
 62
7
100
AcDbPolyline
 90
25
 70
0
 10
158.568765
 20
212.136624
 30
0.0
 10
158.568765
 20
232.376618
 30
0.0
 10
162.906530
 20
232.376618
 30
0.0
 10
164.162823
 20
232.278302
 30
0.0
 10
165.442819
 20
231.557318
 30
0.0
 10
166.485779
 20
230.213666
 30
0.0
 10
166.793926
 20
228.640609
 30
0.0
 10
166.793926
 20
226.805376
 30
0.0
 10
166.272446
 20
225.134004
 30
0.0
 10
165.134672
 20
224.019755
 30
0.0
 10
164.162823
 20
223.397087
 30
0.0
 10
162.835419
 20
223.069367
 30
0.0
 10
158.710987
 20
223.069367
 30
0.0
 10
162.906530
 20
223.069367
 30
0.0
 10
164.162823
 20
222.774419
 30
0.0
 10
165.656152
 20
222.250067
 30
0.0
 10
166.865037
 20
221.103046
 30
0.0
 10
167.528739
 20
220.087114
 30
0.0
 10
167.765775
 20
218.645145
 30
0.0
 10
167.765775
 20
216.580508
 30
0.0
 10
167.149481
 20
214.614188
 30
0.0
 10
166.106521
 20
213.372128
 30
0.0
 10
164.257637
 20
212.339810
 30
0.0
 10
162.906530
 20
212.136624
 30
0.0
 10
158.710987
 20
212.136624
 30
0.0
  0
LWPOLYLINE
  5
110
100
AcDbEntity
  8
Layer_1
 62
7
100
AcDbPolyline
 90
24
 70
0
 10
171.871072
 20
213.683463
 30
0.0
 10
172.695958
 20
212.546274
 30
0.0
 10
174.047065
 20
211.930160
 30
0.0
 10
175.445580
 20
211.723696
 30
0.0
 10
176.938908
 20
212.752737
 30
0.0
 10
178.361127
 20
214.712504
 30
0.0
 10
179.190754
 20
217.694757
 30
0.0
 10
179.570012
 20
221.332450
 30
0.0
 10
179.570012
 20
224.740739
 30
0.0
 10
179.048532
 20
227.919625
 30
0.0
 10
178.147794
 20
230.410298
 30
0.0
 10
176.725576
 20
231.852266
 30
0.0
 10
175.090025
 20
232.278302
 30
0.0
 10
173.359660
 20
231.426230
 30
0.0
 10
172.316700
 20
229.984261
 30
0.0
 10
171.721739
 20
228.149029
 30
0.0
 10
171.572406
 20
226.281024
 30
0.0
 10
171.648257
 20
224.216387
 30
0.0
 10
172.458922
 20
222.053434
 30
0.0
 10
173.952251
 20
220.709782
 30
0.0
 10
175.753727
 20
220.382062
 30
0.0
 10
177.697425
 20
221.529082
 30
0.0
 10
178.882606
 20
223.069367
 30
0.0
 10
179.641123
 20
224.413019
 30
0.0
  0
LWPOLYLINE
  5
111
100
AcDbEntity
  8
Layer_1
 62
7
100
AcDbPolyline
 90
21
 70
1
 10
187.487359
 20
211.825289
 30
0.0
 10
188.909577
 20
212.238217
 30
0.0
 10
190.402906
 20
214.302854
 30
0.0
 10
191.066608
 20
216.482192
 30
0.0
 10
191.374755
 20
218.940093
 30
0.0
 10
191.516977
 20
222.348383
 30
0.0
 10
191.374755
 20
225.560040
 30
0.0
 10
190.829571
 20
228.640609
 30
0.0
 10
190.094759
 20
230.606930
 30
0.0
 10
188.909577
 20
231.852266
 30
0.0
 10
187.842914
 20
232.376618
 30
0.0
 10
186.965879
 20
232.278302
 30
0.0
 10
185.543661
 20
231.131282
 30
0.0
 10
184.571812
 20
229.263277
 30
0.0
 10
183.896258
 20
226.281024
 30
0.0
 10
183.671074
 20
223.167683
 30
0.0
 10
183.597593
 20
220.087114
 30
0.0
 10
183.896258
 20
217.203177
 30
0.0
 10
184.642923
 20
214.302854
 30
0.0
 10
185.543661
 20
212.962478
 30
0.0
 10
186.444399
 20
211.930160
 30
0.0
  0
LWPOLYLINE
  5
112
100
AcDbEntity
  8
Layer_1
 62
7
100
AcDbPolyline
 90
21
 70
1
 10
199.362489
 20
211.825289
 30
0.0
 10
200.784707
 20
212.238217
 30
0.0
 10
202.278036
 20
214.302854
 30
0.0
 10
202.941738
 20
216.482192
 30
0.0
 10
203.249885
 20
218.940093
 30
0.0
 10
203.392107
 20
222.348383
 30
0.0
 10
203.249885
 20
225.560040
 30
0.0
 10
202.704701
 20
228.640609
 30
0.0
 10
201.969889
 20
230.606930
 30
0.0
 10
200.784707
 20
231.852266
 30
0.0
 10
199.718044
 20
232.376618
 30
0.0
 10
198.841009
 20
232.278302
 30
0.0
 10
197.418791
 20
231.131282
 30
0.0
 10
196.446942
 20
229.263277
 30
0.0
 10
195.771388
 20
226.281024
 30
0.0
 10
195.546204
 20
223.167683
 30
0.0
 10
195.472723
 20
220.087114
 30
0.0
 10
195.771388
 20
217.203177
 30
0.0
 10
196.518053
 20
214.302854
 30
0.0
 10
197.418791
 20
212.962478
 30
0.0
 10
198.319529
 20
211.930160
 30
0.0
  0
LWPOLYLINE
  5
113
100
AcDbEntity
  8
Layer_1
 62
7
100
AcDbPolyline
 90
28
 70
0
 10
207.497910
 20
230.082577
 30
0.0
 10
208.702054
 20
231.327914
 30
0.0
 10
210.266494
 20
232.278302
 30
0.0
 10
211.522787
 20
232.278302
 30
0.0
 10
212.873894
 20
231.753950
 30
0.0
 10
213.987965
 20
230.508614
 30
0.0
 10
214.509445
 20
228.870013
 30
0.0
 10
214.746481
 20
226.903692
 30
0.0
 10
214.367223
 20
225.134004
 30
0.0
 10
213.087226
 20
223.790351
 30
0.0
 10
211.688712
 20
222.774419
 30
0.0
 10
210.479827
 20
222.446699
 30
0.0
 10
209.579089
 20
222.446699
 30
0.0
 10
210.716863
 20
222.446699
 30
0.0
 10
211.902045
 20
222.250067
 30
0.0
 10
213.087226
 20
221.627398
 30
0.0
 10
214.367223
 20
220.283746
 30
0.0
 10
214.959814
 20
219.038409
 30
0.0
 10
215.196850
 20
217.596441
 30
0.0
 10
215.125739
 20
216.056156
 30
0.0
 10
214.888703
 20
214.810820
 30
0.0
 10
214.153890
 20
213.372128
 30
0.0
 10
213.087226
 20
212.444680
 30
0.0
 10
211.759823
 20
211.930160
 30
0.0
 10
210.337605
 20
211.930160
 30
0.0
 10
208.986498
 20
212.444680
 30
0.0
 10
207.647242
 20
213.476999
 30
0.0
 10
206.827097
 20
214.515872
 30
0.0
  0
LWPOLYLINE
  5
114
100
AcDbEntity
  8
Layer_1
 62
7
100
AcDbPolyline
 90
4
 70
0
 10
225.270662
 20
211.723696
 30
0.0
 10
225.270662
 20
231.852266
 30
0.0
 10
218.330238
 20
218.415741
 30
0.0
 10
227.735840
 20
218.415741
 30
0.0
  0
LWPOLYLINE
  5
115
100
AcDbEntity
  8
Layer_1
 62
7
100
AcDbPolyline
 90
9
 70
0
 10
232.453038
 20
227.198640
 30
0.0
 10
234.088589
 20
230.508614
 30
0.0
 10
236.767100
 20
231.753950
 30
0.0
 10
234.088589
 20
230.508614
 30
0.0
 10
234.088589
 20
234.441255
 30
0.0
 10
234.088589
 20
230.508614
 30
0.0
 10
231.398226
 20
231.753950
 30
0.0
 10
234.088589
 20
230.508614
 30
0.0
 10
235.961176
 20
227.100324
 30
0.0
  0
ENDSEC
  0
SECTION
  2
OBJECTS
  0
DICTIONARY
  5
C
330
0
100
AcDbDictionary
  3
ACAD_GROUP
350
D
  3
ACAD_MLINESTYLE
350
17
  0
DICTIONARY
  5
D
330
C
100
AcDbDictionary
  0
DICTIONARY
  5
1A
330
C
100
AcDbDictionary
  0
DICTIONARY
  5
17
330
C
100
AcDbDictionary
  3
STANDARD
350
18
  0
DICTIONARY
  5
19
330
C
100
AcDbDictionary
  0
ENDSEC
  0
EOF
