  0
SECTION
  2
HEADER
  9
$ACADVER
  1
AC1014
  9
$HANDSEED
  5
FFFF
  9
$MEASUREMENT
 70
     1
  0
ENDSEC
  0
SECTION
  2
TABLES
  0
TABLE
  2
VPORT
  5
8
330
0
100
AcDbSymbolTable
 70
     4
  0
VPORT
  5
2E
330
8
100
AcDbSymbolTableRecord
100
AcDbViewportTableRecord
  2
*ACTIVE
 70
     0
 10
0.0
 20
0.0
 11
1.0
 21
1.0
 12
210.0
 22
148.5
 13
0.0
 23
0.0
 14
10.0
 24
10.0
 15
10.0
 25
10.0
 16
0.0
 26
0.0
 36
1.0
 17
0.0
 27
0.0
 37
0.0
 40
341.0
 41
1.24
 42
50.0
 43
0.0
 44
0.0
 50
0.0
 51
0.0
 71
     0
 72
   100
 73
     1
 74
     3
 75
     0
 76
     0
 77
     0
 78
     0
  0
ENDTAB
  0
TABLE
  2
LTYPE
  5
5
330
0
100
AcDbSymbolTable
 70
     1
  0
LTYPE
  5
14
330
5
100
AcDbSymbolTableRecord
100
AcDbLinetypeTableRecord
  2
BYBLOCK
 70
     0
  3

 72
    65
 73
     0
 40
0.0
  0
LTYPE
  5
15
330
5
100
AcDbSymbolTableRecord
100
AcDbLinetypeTableRecord
  2
BYLAYER
 70
     0
  3

 72
    65
 73
     0
 40
0.0
  0
LTYPE
  5
16
330
5
100
AcDbSymbolTableRecord
100
AcDbLinetypeTableRecord
  2
CONTINUOUS
 70
     0
  3
Solid line
 72
    65
 73
     0
 40
0.0
  0
ENDTAB
  0
TABLE
  2
LAYER
  5
2
100
AcDbSymbolTable
 70
2
  0
LAYER
  5
50
100
AcDbSymbolTableRecord
100
AcDbLayerTableRecord
  2
0
 70
0
  6
CONTINUOUS
  0
LAYER
  5
51
100
AcDbSymbolTableRecord
100
AcDbLayerTableRecord
  2
Layer_1
 70
0
  6
CONTINUOUS
  0
ENDTAB
  0
TABLE
  2
STYLE
  5
3
330
0
100
AcDbSymbolTable
 70
     1
  0
STYLE
  5
11
330
3
100
AcDbSymbolTableRecord
100
AcDbTextStyleTableRecord
  2
STANDARD
 70
     0
 40
0.0
 41
1.0
 50
0.0
 71
     0
 42
2.5
  3
txt
  4

  0
ENDTAB
  0
TABLE
  2
VIEW
  5
6
330
0
100
AcDbSymbolTable
 70
     0
  0
ENDTAB
  0
TABLE
  2
UCS
  5
7
330
0
100
AcDbSymbolTable
 70
     0
  0
ENDTAB
  0
TABLE
  2
APPID
  5
9
330
0
100
AcDbSymbolTable
 70
     2
  0
APPID
  5
12
330
9
100
AcDbSymbolTableRecord
100
AcDbRegAppTableRecord
  2
ACAD
 70
     0
  0
ENDTAB
  0
TABLE
  2
DIMSTYLE
  5
A
330
0
100
AcDbSymbolTable
 70
     1
  0
DIMSTYLE
105
27
330
A
100
AcDbSymbolTableRecord
100
AcDbDimStyleTableRecord
  2
ISO-25
 70
     0
  3

  4

  5

  6

  7

 40
1.0
 41
2.5
 42
0.625
 43
3.75
 44
1.25
 45
0.0
 46
0.0
 47
0.0
 48
0.0
140
2.5
141
2.5
142
0.0
143
0.03937007874016
144
1.0
145
0.0
146
1.0
147
0.625
 71
     0
 72
     0
 73
     0
 74
     0
 75
     0
 76
     0
 77
     1
 78
     8
170
     0
171
     3
172
     1
173
     0
174
     0
175
     0
176
     0
177
     0
178
     0
270
     2
271
     2
272
     2
273
     2
274
     3
340
11
275
     0
280
     0
281
     0
282
     0
283
     0
284
     8
285
     0
286
     0
287
     3
288
     0
  0
ENDTAB
  0
TABLE
  2
BLOCK_RECORD
  5
1
330
0
100
AcDbSymbolTable
 70
     1
  0
BLOCK_RECORD
  5
1F
330
1
100
AcDbSymbolTableRecord
100
AcDbBlockTableRecord
  2
*MODEL_SPACE
  0
BLOCK_RECORD
  5
1B
330
1
100
AcDbSymbolTableRecord
100
AcDbBlockTableRecord
  2
*PAPER_SPACE
  0
ENDTAB
  0
ENDSEC
  0
SECTION
  2
BLOCKS
  0
BLOCK
  5
20
330
1F
100
AcDbEntity
  8
0
100
AcDbBlockBegin
  2
*MODEL_SPACE
 70
     0
 10
0.0
 20
0.0
 30
0.0
  3
*MODEL_SPACE
  1

  0
ENDBLK
  5
21
330
1F
100
AcDbEntity
  8
0
100
AcDbBlockEnd
  0
BLOCK
  5
1C
330
1B
100
AcDbEntity
 67
     1
  8
0
100
AcDbBlockBegin
  2
*PAPER_SPACE
  1

  0
ENDBLK
  5
1D
330
1B
100
AcDbEntity
 67
     1
  8
0
100
AcDbBlockEnd
  0
ENDSEC
  0
SECTION
  2
ENTITIES
  0
LWPOLYLINE
  5
100
100
AcDbEntity
  8
Layer_1
 62
7
100
AcDbPolyline
 90
2
 70
0
 10
66.689804
 20
226.522926
 30
0.0
 10
66.689804
 20
233.821741
 30
0.0
  0
LWPOLYLINE
  5
101
100
AcDbEntity
  8
Layer_1
 62
7
100
AcDbPolyline
 90
2
 70
0
 10
69.669242
 20
233.752891
 30
0.0
 10
66.772796
 20
229.232009
 30
0.0
  0
LWPOLYLINE
  5
102
100
AcDbEntity
  8
Layer_1
 62
7
100
AcDbPolyline
 90
2
 70
0
 10
68.025986
 20
231.182643
 30
0.0
 10
69.984614
 20
226.522922
 30
0.0
  0
LWPOLYLINE
  5
103
100
AcDbEntity
  8
Layer_1
 62
7
100
AcDbPolyline
 90
2
 70
0
 10
71.528230
 20
226.522926
 30
0.0
 10
71.528230
 20
233.821741
 30
0.0
  0
LWPOLYLINE
  5
104
100
AcDbEntity
  8
Layer_1
 62
7
100
AcDbPolyline
 90
2
 70
0
 10
74.507668
 20
233.752891
 30
0.0
 10
71.611222
 20
229.232009
 30
0.0
  0
LWPOLYLINE
  5
105
100
AcDbEntity
  8
Layer_1
 62
7
100
AcDbPolyline
 90
2
 70
0
 10
72.864412
 20
231.182643
 30
0.0
 10
74.823040
 20
226.522922
 30
0.0
  0
LWPOLYLINE
  5
106
100
AcDbEntity
  8
Layer_1
 62
7
100
AcDbPolyline
 90
25
 70
0
 10
76.341758
 20
226.631932
 30
0.0
 10
76.341758
 20
233.718472
 30
0.0
 10
77.860524
 20
233.718472
 30
0.0
 10
78.300386
 20
233.684052
 30
0.0
 10
78.748546
 20
233.431617
 30
0.0
 10
79.113714
 20
232.961170
 30
0.0
 10
79.221605
 20
232.410402
 30
0.0
 10
79.221605
 20
231.767840
 30
0.0
 10
79.039021
 20
231.182650
 30
0.0
 10
78.640656
 20
230.792523
 30
0.0
 10
78.300386
 20
230.574511
 30
0.0
 10
77.835626
 20
230.459768
 30
0.0
 10
76.391553
 20
230.459768
 30
0.0
 10
77.860524
 20
230.459768
 30
0.0
 10
78.300386
 20
230.356499
 30
0.0
 10
78.823240
 20
230.172910
 30
0.0
 10
79.246502
 20
229.771309
 30
0.0
 10
79.478882
 20
229.415605
 30
0.0
 10
79.561872
 20
228.910735
 30
0.0
 10
79.561872
 20
228.187852
 30
0.0
 10
79.346091
 20
227.499393
 30
0.0
 10
78.980923
 20
227.064517
 30
0.0
 10
78.333580
 20
226.703075
 30
0.0
 10
77.860521
 20
226.631935
 30
0.0
 10
76.391550
 20
226.631935
 30
0.0
  0
LWPOLYLINE
  5
107
100
AcDbEntity
  8
Layer_1
 62
7
100
AcDbPolyline
 90
24
 70
0
 10
80.999247
 20
227.173520
 30
0.0
 10
81.288061
 20
226.775361
 30
0.0
 10
81.761120
 20
226.559643
 30
0.0
 10
82.250777
 20
226.487353
 30
0.0
 10
82.773631
 20
226.847647
 30
0.0
 10
83.271587
 20
227.533811
 30
0.0
 10
83.562061
 20
228.577974
 30
0.0
 10
83.694850
 20
229.851624
 30
0.0
 10
83.694850
 20
231.044953
 30
0.0
 10
83.512266
 20
232.157962
 30
0.0
 10
83.196893
 20
233.030011
 30
0.0
 10
82.698937
 20
233.534881
 30
0.0
 10
82.126287
 20
233.684047
 30
0.0
 10
81.520441
 20
233.385714
 30
0.0
 10
81.155273
 20
232.880844
 30
0.0
 10
80.946961
 20
232.238282
 30
0.0
 10
80.894681
 20
231.584246
 30
0.0
 10
80.921241
 20
230.861364
 30
0.0
 10
81.205077
 20
230.104059
 30
0.0
 10
81.727931
 20
229.633612
 30
0.0
 10
82.358675
 20
229.518869
 30
0.0
 10
83.039215
 20
229.920470
 30
0.0
 10
83.454179
 20
230.459763
 30
0.0
 10
83.719755
 20
230.930210
 30
0.0
  0
LWPOLYLINE
  5
108
100
AcDbEntity
  8
Layer_1
 62
7
100
AcDbPolyline
 90
21
 70
1
 10
86.466921
 20
226.522926
 30
0.0
 10
86.964878
 20
226.667502
 30
0.0
 10
87.487732
 20
227.390384
 30
0.0
 10
87.720111
 20
228.153427
 30
0.0
 10
87.828002
 20
229.014001
 30
0.0
 10
87.877802
 20
230.207330
 30
0.0
 10
87.828002
 20
231.331813
 30
0.0
 10
87.637118
 20
232.410399
 30
0.0
 10
87.379841
 20
233.098858
 30
0.0
 10
86.964878
 20
233.534883
 30
0.0
 10
86.591410
 20
233.718472
 30
0.0
 10
86.284337
 20
233.684052
 30
0.0
 10
85.786381
 20
233.282451
 30
0.0
 10
85.446111
 20
232.628414
 30
0.0
 10
85.209582
 20
231.584251
 30
0.0
 10
85.130742
 20
230.494191
 30
0.0
 10
85.105012
 20
229.415605
 30
0.0
 10
85.209583
 20
228.405865
 30
0.0
 10
85.471010
 20
227.390387
 30
0.0
 10
85.786382
 20
226.921088
 30
0.0
 10
86.101755
 20
226.559646
 30
0.0
  0
LWPOLYLINE
  5
109
100
AcDbEntity
  8
Layer_1
 62
7
100
AcDbPolyline
 90
21
 70
1
 10
90.624718
 20
226.522926
 30
0.0
 10
91.122675
 20
226.667502
 30
0.0
 10
91.645529
 20
227.390384
 30
0.0
 10
91.877908
 20
228.153427
 30
0.0
 10
91.985799
 20
229.014001
 30
0.0
 10
92.035599
 20
230.207330
 30
0.0
 10
91.985799
 20
231.331813
 30
0.0
 10
91.794915
 20
232.410399
 30
0.0
 10
91.537638
 20
233.098858
 30
0.0
 10
91.122675
 20
233.534883
 30
0.0
 10
90.749207
 20
233.718472
 30
0.0
 10
90.442134
 20
233.684052
 30
0.0
 10
89.944178
 20
233.282451
 30
0.0
 10
89.603908
 20
232.628414
 30
0.0
 10
89.367379
 20
231.584251
 30
0.0
 10
89.288539
 20
230.494191
 30
0.0
 10
89.262809
 20
229.415605
 30
0.0
 10
89.367380
 20
228.405865
 30
0.0
 10
89.628807
 20
227.390387
 30
0.0
 10
89.944179
 20
226.921088
 30
0.0
 10
90.259552
 20
226.559646
 30
0.0
  0
LWPOLYLINE
  5
10a
100
AcDbEntity
  8
Layer_1
 62
7
100
AcDbPolyline
 90
28
 70
0
 10
93.473145
 20
232.915269
 30
0.0
 10
93.894748
 20
233.351293
 30
0.0
 10
94.442499
 20
233.684049
 30
0.0
 10
94.882361
 20
233.684049
 30
0.0
 10
95.355419
 20
233.500460
 30
0.0
 10
95.745485
 20
233.064435
 30
0.0
 10
95.928069
 20
232.490719
 30
0.0
 10
96.011059
 20
231.802260
 30
0.0
 10
95.878271
 20
231.182647
 30
0.0
 10
95.430110
 20
230.712200
 30
0.0
 10
94.940454
 20
230.356496
 30
0.0
 10
94.517191
 20
230.241753
 30
0.0
 10
94.201819
 20
230.241753
 30
0.0
 10
94.600183
 20
230.241753
 30
0.0
 10
95.015147
 20
230.172903
 30
0.0
 10
95.430110
 20
229.954891
 30
0.0
 10
95.878271
 20
229.484444
 30
0.0
 10
96.085753
 20
229.048419
 30
0.0
 10
96.168743
 20
228.543549
 30
0.0
 10
96.143843
 20
228.004256
 30
0.0
 10
96.060853
 20
227.568232
 30
0.0
 10
95.803576
 20
227.064510
 30
0.0
 10
95.430108
 20
226.739786
 30
0.0
 10
94.965349
 20
226.559639
 30
0.0
 10
94.467397
 20
226.559639
 30
0.0
 10
93.994339
 20
226.739790
 30
0.0
 10
93.525430
 20
227.101231
 30
0.0
 10
93.238275
 20
227.464967
 30
0.0
  0
LWPOLYLINE
  5
10b
100
AcDbEntity
  8
Layer_1
 62
7
100
AcDbPolyline
 90
4
 70
0
 10
99.695855
 20
226.487355
 30
0.0
 10
99.695855
 20
233.534883
 30
0.0
 10
97.265829
 20
228.830411
 30
0.0
 10
100.558980
 20
228.830411
 30
0.0
  0
LWPOLYLINE
  5
10c
100
AcDbEntity
  8
Layer_1
 62
7
100
AcDbPolyline
 90
9
 70
0
 10
102.210600
 20
231.905529
 30
0.0
 10
102.783250
 20
233.064435
 30
0.0
 10
103.721070
 20
233.500460
 30
0.0
 10
102.783250
 20
233.064435
 30
0.0
 10
102.783250
 20
234.441354
 30
0.0
 10
102.783250
 20
233.064435
 30
0.0
 10
101.841280
 20
233.500460
 30
0.0
 10
102.783250
 20
233.064435
 30
0.0
 10
103.438890
 20
231.871106
 30
0.0
  0
ENDSEC
  0
SECTION
  2
OBJECTS
  0
DICTIONARY
  5
C
330
0
100
AcDbDictionary
  3
ACAD_GROUP
350
D
  3
ACAD_MLINESTYLE
350
17
  0
DICTIONARY
  5
D
330
C
100
AcDbDictionary
  0
DICTIONARY
  5
1A
330
C
100
AcDbDictionary
  0
DICTIONARY
  5
17
330
C
100
AcDbDictionary
  3
STANDARD
350
18
  0
DICTIONARY
  5
19
330
C
100
AcDbDictionary
  0
ENDSEC
  0
EOF
